<svg width="464" height="508" viewBox="0 0 464 508" fill="none" xmlns="http://www.w3.org/2000/svg">
<path d="M3.44857 1.4793C0.383174 3.39177 0 7.79046 0 48.9086C0 73.7707 0.766348 95.3816 1.72428 96.7204C2.87381 98.8241 24.14 99.2066 113.228 99.0153C219.367 98.6328 223.774 98.8241 238.334 102.649C266.306 110.108 291.787 124.642 310.754 144.15C326.081 159.832 330.871 166.525 339.109 184.12C350.604 208.026 353.287 220.648 353.287 249.144C353.478 277.449 351.179 287.011 338.726 313.786L330.871 330.424L357.31 357.772C371.871 372.69 387.198 388.372 391.029 392.388C400.034 401.759 400.417 401.377 416.127 377.28C449.846 325.26 461.916 250.483 446.206 189.093C422.258 94.6166 350.796 27.2977 251.171 4.92176C233.736 1.09681 227.222 0.905568 119.742 0.14058C42.5323 -0.241914 5.55603 0.140574 3.44857 1.4793Z" fill="black"/>
<path d="M0.95773 121.965C0.191381 123.112 0.191381 139.751 0.766143 158.875C1.3409 178 1.91567 257.941 1.91567 336.544C1.91567 441.156 2.49042 479.597 4.02312 479.597C5.17264 479.597 27.2051 458.368 52.8778 432.55L99.625 385.503L99.2419 253.352L98.6671 121.009L50.3871 120.435C18.5837 120.244 1.72409 120.626 0.95773 121.965Z" fill="black"/>
<path d="M130.279 274.771C121.849 275.536 117.826 276.684 117.826 278.405C117.826 279.744 134.303 297.53 154.228 317.611C174.344 337.883 223.199 387.225 263.241 427.578L335.661 500.634H396.585C468.047 500.634 467.856 500.634 453.87 485.717C439.692 470.608 377.81 407.497 309.796 338.457L245.04 273.05L193.886 273.433C165.723 273.624 137.176 274.198 130.279 274.771Z" fill="#FF7A08"/>
<path d="M146.564 402.524L111.887 403.098L65.1396 449.954C31.6119 483.613 18.9671 497.383 20.3082 498.722C21.8409 500.252 54.0276 500.634 128.555 500.06C229.138 499.487 235.461 499.295 250.021 495.47C267.264 490.88 283.549 484.378 283.549 481.892C283.549 481.127 266.306 462.576 245.04 440.774L206.531 401.186L193.886 401.568C186.797 401.951 165.531 402.333 146.564 402.524Z" fill="black"/>
</svg>
