<svg width="37" height="41" viewBox="0 0 37 41" fill="none" xmlns="http://www.w3.org/2000/svg">
<path d="M0.27648 0.11881C0.03072 0.27241 0 0.625691 0 3.92809C0 5.92489 0.06144 7.66057 0.13824 7.76809C0.2304 7.93705 1.93536 7.96777 9.07776 7.95241C17.5872 7.92169 17.9405 7.93705 19.1078 8.24425C21.3504 8.84329 23.3933 10.0106 24.9139 11.5774C26.1427 12.8369 26.5267 13.3745 27.1872 14.7876C28.1088 16.7076 28.3238 17.7214 28.3238 20.01C28.3392 22.2833 28.1549 23.0513 27.1565 25.2017L26.5267 26.538L28.6464 28.7345C29.8138 29.9326 31.0426 31.1921 31.3498 31.5146C32.0717 32.2673 32.1024 32.2366 33.3619 30.3012C36.0653 26.1233 37.033 20.1175 35.7734 15.187C33.8534 7.59913 28.1242 2.19241 20.137 0.39529C18.7392 0.0880903 18.217 0.0727307 9.6 0.0112907C3.40992 -0.0194293 0.44544 0.0112902 0.27648 0.11881Z" fill="#FF7A08"/>
<path d="M0.0767814 9.79561C0.0153414 9.88777 0.0153414 11.2241 0.0614214 12.7601C0.107501 14.2961 0.153581 20.7166 0.153581 27.0295C0.153581 35.4314 0.199661 38.5188 0.322541 38.5188C0.414701 38.5188 2.1811 36.8138 4.23934 34.7402L7.98718 30.9617L7.95646 20.3479L7.91038 9.71881L4.03966 9.67273C1.4899 9.65737 0.138221 9.68809 0.0767814 9.79561Z" fill="#FF7A08"/>
<path d="M10.4448 22.0682C9.76896 22.1297 9.4464 22.2218 9.4464 22.3601C9.4464 22.4676 10.7674 23.8961 12.3648 25.5089C13.9776 27.137 17.8944 31.0999 21.1046 34.3409L26.9107 40.2084H31.7952C37.5245 40.2084 37.5091 40.2084 36.3878 39.0103C35.2512 37.7969 30.2899 32.7281 24.8371 27.1831L19.6454 21.93L15.5443 21.9607C13.2864 21.9761 10.9978 22.0222 10.4448 22.0682Z" fill="#212121"/>
<path d="M11.7504 32.3287L8.97024 32.3748L5.2224 36.138C2.5344 38.8414 1.52064 39.9473 1.62816 40.0548C1.75104 40.1777 4.33152 40.2084 10.3066 40.1623C18.3706 40.1162 18.8774 40.1009 20.0448 39.7937C21.4272 39.425 22.7328 38.9028 22.7328 38.7031C22.7328 38.6417 21.3504 37.1518 19.6454 35.4007L16.5581 32.2212L15.5443 32.2519C14.976 32.2826 13.271 32.3134 11.7504 32.3287Z" fill="#FF7A08"/>
</svg>
