<svg width="794" height="277" viewBox="0 0 794 277" fill="none" xmlns="http://www.w3.org/2000/svg">
<path d="M250.027 9.05467H253.103L243.65 34.9747H240.575L243.702 26.3347L237.499 9.05467H240.678L245.154 22.343L250.027 9.05467Z" fill="white"/>
<path d="M233.255 21.7727L235.847 23.1723C235.063 24.2667 234.067 25.1423 232.857 25.7989C231.659 26.4555 230.357 26.7839 228.952 26.7839C227.362 26.7839 225.911 26.3749 224.597 25.557C223.296 24.7391 222.253 23.6447 221.47 22.2738C220.698 20.8914 220.312 19.365 220.312 17.6946C220.312 16.4274 220.537 15.2466 220.986 14.1522C221.435 13.0463 222.051 12.0786 222.835 11.2491C223.63 10.4082 224.551 9.75154 225.6 9.27922C226.648 8.8069 227.765 8.57074 228.952 8.57074C230.357 8.57074 231.659 8.89906 232.857 9.5557C234.067 10.2123 235.063 11.0936 235.847 12.1995L233.255 13.5992C232.702 12.9195 232.045 12.3954 231.285 12.0267C230.524 11.6581 229.747 11.4738 228.952 11.4738C227.881 11.4738 226.907 11.7618 226.032 12.3378C225.168 12.9023 224.482 13.6568 223.975 14.6015C223.468 15.5461 223.215 16.5771 223.215 17.6946C223.215 18.812 223.468 19.8431 223.975 20.7877C224.494 21.7208 225.185 22.4696 226.049 23.0341C226.924 23.5986 227.892 23.8808 228.952 23.8808C229.804 23.8808 230.605 23.685 231.354 23.2933C232.103 22.9016 232.736 22.3947 233.255 21.7727Z" fill="white"/>
<path d="M218.23 15.5864V26.3346H215.327V16.2258C215.327 15.3503 215.114 14.5554 214.688 13.8411C214.262 13.1269 213.692 12.5624 212.977 12.1477C212.263 11.7215 211.468 11.5083 210.593 11.5083C209.729 11.5083 208.934 11.7215 208.208 12.1477C207.494 12.5624 206.924 13.1269 206.497 13.8411C206.071 14.5554 205.858 15.3503 205.858 16.2258V26.3346H202.955V9.05458H205.858V11.2146C206.469 10.4082 207.24 9.76882 208.173 9.2965C209.107 8.81266 210.12 8.57074 211.215 8.57074C212.505 8.57074 213.68 8.88754 214.74 9.52114C215.811 10.1432 216.658 10.9842 217.28 12.044C217.914 13.1039 218.23 14.2847 218.23 15.5864Z" fill="white"/>
<path d="M191.489 26.7839C189.9 26.7839 188.448 26.3749 187.135 25.557C185.833 24.7391 184.791 23.6447 184.007 22.2738C183.235 20.8914 182.849 19.365 182.849 17.6946C182.849 16.4274 183.074 15.2466 183.523 14.1522C183.973 13.0463 184.589 12.0786 185.372 11.2491C186.167 10.4082 187.089 9.75154 188.137 9.27922C189.185 8.8069 190.303 8.57074 191.489 8.57074C192.791 8.57074 193.983 8.8357 195.066 9.36562C196.161 9.88402 197.094 10.6098 197.866 11.5429C198.649 12.476 199.231 13.5589 199.611 14.7915C200.003 16.0242 200.147 17.3432 200.043 18.7487H185.943C186.081 19.7279 186.403 20.6034 186.91 21.3752C187.417 22.1355 188.062 22.7403 188.846 23.1896C189.64 23.6389 190.522 23.8693 191.489 23.8808C192.526 23.8808 193.465 23.6159 194.306 23.0859C195.147 22.5445 195.827 21.8072 196.345 20.8741L199.3 21.5653C198.609 23.0975 197.566 24.3531 196.172 25.3323C194.778 26.3 193.217 26.7839 191.489 26.7839ZM185.856 16.4677H197.123C197.031 15.5 196.719 14.6187 196.19 13.8239C195.66 13.0175 194.986 12.3723 194.168 11.8885C193.35 11.4047 192.457 11.1627 191.489 11.1627C190.522 11.1627 189.635 11.3989 188.828 11.8712C188.022 12.3435 187.354 12.9829 186.824 13.7893C186.305 14.5842 185.983 15.477 185.856 16.4677Z" fill="white"/>
<path d="M177.064 9.05471H179.967V26.8877C179.967 28.0281 179.72 29.088 179.224 30.0672C178.741 31.0579 178.084 31.9161 177.254 32.6419C176.425 33.3792 175.48 33.9494 174.421 34.3526C173.361 34.7673 172.255 34.9747 171.103 34.9747C169.905 34.9747 168.747 34.704 167.629 34.1625C166.512 33.6326 165.533 32.9184 164.692 32.0198C163.862 31.1328 163.263 30.1363 162.895 29.0304L165.556 27.8208C165.775 28.6157 166.166 29.3299 166.731 29.9635C167.307 30.6086 167.975 31.1155 168.735 31.4841C169.507 31.8643 170.296 32.0544 171.103 32.0544C171.863 32.0544 172.595 31.9219 173.297 31.6569C174.012 31.392 174.651 31.0233 175.215 30.551C175.791 30.0902 176.241 29.543 176.563 28.9094C176.897 28.2873 177.064 27.6134 177.064 26.8877V23.4489C176.477 24.4397 175.699 25.2461 174.732 25.8681C173.775 26.4787 172.658 26.784 171.379 26.784C170.158 26.784 169.012 26.5478 167.941 26.0755C166.869 25.6032 165.93 24.9523 165.124 24.1229C164.317 23.2819 163.684 22.3142 163.223 21.2198C162.762 20.1254 162.532 18.9504 162.532 17.6947C162.532 16.439 162.762 15.264 163.223 14.1696C163.684 13.0637 164.317 12.096 165.124 11.2665C165.93 10.4256 166.869 9.76895 167.941 9.29663C169.012 8.82431 170.158 8.58814 171.379 8.58814C172.658 8.58814 173.775 8.89342 174.732 9.50398C175.699 10.1145 176.477 10.9209 177.064 11.9232V9.05471ZM171.397 23.9673C172.514 23.9673 173.482 23.6793 174.3 23.1033C175.129 22.5273 175.768 21.7613 176.218 20.8051C176.667 19.8489 176.892 18.8121 176.892 17.6947C176.892 16.5427 176.661 15.4944 176.2 14.5497C175.751 13.5936 175.112 12.8333 174.282 12.2688C173.464 11.6928 172.502 11.4048 171.397 11.4048C170.314 11.4048 169.323 11.687 168.424 12.2515C167.526 12.816 166.812 13.5763 166.282 14.5325C165.763 15.4771 165.504 16.5312 165.504 17.6947C165.504 18.8582 165.769 19.9181 166.299 20.8742C166.84 21.8189 167.555 22.5734 168.442 23.1379C169.34 23.6909 170.325 23.9673 171.397 23.9673Z" fill="white"/>
<path d="M149.533 2.1426H153.041L161.836 26.3346H158.761L156.963 21.3925H145.61L143.831 26.3346H140.738L149.533 2.1426ZM146.682 18.4895H155.892L151.278 5.8578L146.682 18.4895Z" fill="white"/>
<path d="M130.028 11.9578H126.106L126.089 26.3347H123.186L123.203 11.9578H120.231V9.05475H123.203L123.186 3.62883H126.089L126.106 9.05475H130.028V11.9578Z" fill="white"/>
<path d="M112.647 4.78656V9.05472H117.711V11.9578H112.647V26.3347H109.744V11.9578H107.515V9.05472H109.744V4.78656C109.744 3.89952 109.958 3.09888 110.384 2.38464C110.822 1.65888 111.403 1.08288 112.129 0.65664C112.866 0.21888 113.673 0 114.548 0C115.193 0 115.821 0.13248 116.432 0.39744C117.042 0.65088 117.584 1.03104 118.056 1.53792L115.983 3.59424C115.821 3.37536 115.608 3.20832 115.343 3.09312C115.09 2.9664 114.825 2.90304 114.548 2.90304C114.03 2.90304 113.581 3.08736 113.2 3.456C112.832 3.82464 112.647 4.26816 112.647 4.78656Z" fill="white"/>
<path d="M96.9894 26.7839C95.3996 26.7839 93.9481 26.3749 92.6348 25.557C91.3331 24.7391 90.2905 23.6447 89.5071 22.2738C88.7353 20.8914 88.3494 19.365 88.3494 17.6946C88.3494 16.4274 88.574 15.2466 89.0233 14.1522C89.4726 13.0463 90.0889 12.0786 90.8723 11.2491C91.6671 10.4082 92.5887 9.75154 93.6371 9.27922C94.6854 8.8069 95.8028 8.57074 96.9894 8.57074C98.5791 8.57074 100.025 8.9797 101.327 9.79762C102.64 10.6155 103.683 11.7157 104.454 13.0981C105.238 14.4805 105.629 16.0127 105.629 17.6946C105.629 18.9503 105.405 20.1253 104.955 21.2197C104.506 22.3141 103.884 23.2818 103.089 24.1227C102.306 24.9522 101.39 25.6031 100.342 26.0754C99.3049 26.5477 98.1875 26.7839 96.9894 26.7839ZM96.9894 23.8808C98.0723 23.8808 99.0457 23.5986 99.9097 23.0341C100.785 22.4581 101.471 21.7035 101.966 20.7704C102.473 19.8258 102.726 18.8005 102.726 17.6946C102.726 16.5656 102.467 15.5288 101.949 14.5842C101.442 13.6395 100.756 12.885 99.8924 12.3205C99.0284 11.756 98.0608 11.4738 96.9894 11.4738C95.9065 11.4738 94.9331 11.7618 94.0691 12.3378C93.2051 12.9023 92.5196 13.6568 92.0127 14.6015C91.5059 15.5461 91.2524 16.5771 91.2524 17.6946C91.2524 18.8466 91.5116 19.8949 92.03 20.8395C92.5484 21.7727 93.2454 22.5157 94.1209 23.0687C94.9964 23.6101 95.9526 23.8808 96.9894 23.8808Z" fill="white"/>
<path d="M76.9802 26.784C75.6785 26.784 74.4228 26.5824 73.2132 26.1792C72.0036 25.7645 70.9437 25.177 70.0337 24.4166C69.1351 23.6563 68.4957 22.752 68.1156 21.7037L70.8285 20.6842C71.0589 21.3293 71.4852 21.8938 72.1073 22.3776C72.7409 22.8499 73.4839 23.2186 74.3364 23.4835C75.1889 23.7485 76.0701 23.881 76.9802 23.881C78.017 23.881 78.9789 23.7139 79.866 23.3798C80.7645 23.0342 81.4903 22.5562 82.0433 21.9456C82.5962 21.335 82.8727 20.6208 82.8727 19.8029C82.8727 18.9619 82.5847 18.2765 82.0087 17.7466C81.4327 17.2051 80.6954 16.7789 79.7969 16.4678C78.8983 16.1453 77.9594 15.8976 76.9802 15.7248C75.3098 15.4483 73.8122 15.0566 72.4874 14.5498C71.1741 14.0314 70.1316 13.3114 69.3597 12.3898C68.5994 11.4682 68.2193 10.2528 68.2193 8.74368C68.2193 7.33824 68.6225 6.11136 69.4289 5.06304C70.2468 4.01472 71.3239 3.20256 72.6602 2.62656C73.9965 2.05056 75.4365 1.76256 76.9802 1.76256C78.2589 1.76256 79.4973 1.96416 80.6954 2.36736C81.905 2.75904 82.9706 3.33504 83.8922 4.09536C84.8138 4.85568 85.4762 5.78304 85.8794 6.87744L83.1319 7.87968C82.9015 7.22304 82.4695 6.65856 81.8359 6.18624C81.2138 5.7024 80.4765 5.33376 79.6241 5.08032C78.7831 4.81536 77.9018 4.68288 76.9802 4.68288C75.9549 4.67136 74.9988 4.8384 74.1117 5.184C73.2247 5.5296 72.5047 6.00768 71.9517 6.61824C71.3988 7.2288 71.1223 7.93728 71.1223 8.74368C71.1223 9.71136 71.3757 10.4544 71.8826 10.9728C72.401 11.4797 73.1037 11.8598 73.9908 12.1133C74.8778 12.3667 75.8743 12.5914 76.9802 12.7872C78.5469 13.0522 79.9985 13.4726 81.3348 14.0486C82.6711 14.6131 83.7425 15.3677 84.5489 16.3123C85.3668 17.257 85.7757 18.4205 85.7757 19.8029C85.7757 21.2083 85.3668 22.4352 84.5489 23.4835C83.7425 24.5318 82.6711 25.344 81.3348 25.92C79.9985 26.496 78.5469 26.784 76.9802 26.784Z" fill="white"/>
<path d="M48.4569 26.7839C46.8671 26.7839 45.4156 26.3749 44.1023 25.557C42.8006 24.7391 41.758 23.6447 40.9747 22.2738C40.2028 20.8914 39.8169 19.365 39.8169 17.6946C39.8169 16.4274 40.0415 15.2466 40.4908 14.1522C40.9401 13.0463 41.5564 12.0786 42.3398 11.2491C43.1347 10.4082 44.0563 9.75154 45.1046 9.27922C46.1529 8.8069 47.2703 8.57074 48.4569 8.57074C49.7587 8.57074 50.951 8.8357 52.0339 9.36562C53.1283 9.88402 54.0614 10.6098 54.8332 11.5429C55.6166 12.476 56.1983 13.5589 56.5785 14.7915C56.9702 16.0242 57.1142 17.3432 57.0105 18.7487H42.91C43.0483 19.7279 43.3708 20.6034 43.8777 21.3752C44.3846 22.1355 45.0297 22.7403 45.8131 23.1896C46.6079 23.6389 47.4892 23.8693 48.4569 23.8808C49.4937 23.8808 50.4326 23.6159 51.2735 23.0859C52.1145 22.5445 52.7942 21.8072 53.3126 20.8741L56.2675 21.5653C55.5763 23.0975 54.5337 24.3531 53.1398 25.3323C51.7458 26.3 50.1849 26.7839 48.4569 26.7839ZM42.8236 16.4677H54.0902C53.998 15.5 53.687 14.6187 53.1571 13.8239C52.6271 13.0175 51.9532 12.3723 51.1353 11.8885C50.3174 11.4047 49.4246 11.1627 48.4569 11.1627C47.4892 11.1627 46.6022 11.3989 45.7958 11.8712C44.9894 12.3435 44.3212 12.9829 43.7913 13.7893C43.2729 14.5842 42.9503 15.477 42.8236 16.4677Z" fill="white"/>
<path d="M37.7355 15.5865V26.3347H34.8324V16.2259C34.8324 15.3503 34.6193 14.5555 34.1931 13.8412C33.7668 13.127 33.1966 12.5625 32.4823 12.1478C31.7681 11.7215 30.9732 11.5084 30.0977 11.5084C29.2337 11.5084 28.4388 11.7215 27.7131 12.1478C26.9988 12.5625 26.4286 13.127 26.0023 13.8412C25.5761 14.5555 25.363 15.3503 25.363 16.2259V26.3347H22.4599V0.414668H25.363V11.2147C25.9735 10.4083 26.7454 9.76891 27.6785 9.29659C28.6116 8.81275 29.6254 8.57083 30.7198 8.57083C32.01 8.57083 33.1851 8.88763 34.2449 9.52123C35.3163 10.1433 36.163 10.9843 36.7851 12.0441C37.4187 13.104 37.7355 14.2847 37.7355 15.5865Z" fill="white"/>
<path d="M18.9907 2.1426V5.04564H10.9382V26.3346H8.0352V5.04564H0V2.1426H18.9907Z" fill="white"/>
<path d="M1.20708 58.6541C0.13412 59.3247 0 60.8671 0 75.2851C0 84.0029 0.268241 91.5807 0.603542 92.0501C1.0059 92.7878 8.44959 92.9219 39.6326 92.8549C76.784 92.7207 78.3263 92.7878 83.4229 94.129C93.2137 96.7443 102.133 101.841 108.772 108.681C114.137 114.18 115.813 116.527 118.697 122.697C122.72 131.079 123.659 135.505 123.659 145.497C123.726 155.422 122.921 158.775 118.562 168.163L115.813 173.998L125.067 183.587C130.164 188.818 135.529 194.317 136.87 195.725C140.022 199.011 140.156 198.877 145.655 190.427C157.457 172.187 161.682 145.967 156.183 124.44C147.801 91.3125 122.787 67.7073 87.916 59.8612C81.8135 58.52 79.5334 58.453 41.9126 58.1847C14.8874 58.0506 1.94475 58.1847 1.20708 58.6541Z" fill="white"/>
<path d="M0.33522 100.902C0.0669791 101.304 0.0669791 107.139 0.26816 113.845C0.46934 120.551 0.670521 148.582 0.670521 176.144C0.670521 212.826 0.871702 226.305 1.40818 226.305C1.81054 226.305 9.52247 218.861 18.5085 209.808L34.8712 193.311L34.7371 146.972L34.5359 100.567L17.6368 100.366C6.50476 100.299 0.603461 100.433 0.33522 100.902Z" fill="white"/>
<path d="M45.601 154.483C42.6503 154.751 41.242 155.154 41.242 155.757C41.242 156.227 47.0092 162.463 53.9835 169.505C61.0248 176.613 78.1252 193.915 92.1408 208.064L117.49 233.681H138.815C163.828 233.681 163.761 233.681 158.866 228.451C153.903 223.153 132.243 201.023 108.436 176.814L85.77 153.88L67.865 154.014C58.0071 154.081 48.0151 154.282 45.601 154.483Z" fill="white" fill-opacity="0.45"/>
<path d="M51.3011 199.279L39.1632 199.481L22.8005 215.91C11.0649 227.713 6.63896 232.541 7.10839 233.011C7.64487 233.547 18.911 233.681 44.9974 233.48C80.204 233.279 82.417 233.212 87.5136 231.871C93.549 230.261 99.2491 227.981 99.2491 227.109C99.2491 226.841 93.2137 220.336 85.77 212.691L72.2909 198.81L67.865 198.944C65.3837 199.078 57.94 199.212 51.3011 199.279Z" fill="white"/>
<path d="M761.511 100.048H793.952V276.081H761.511V210.949C751.955 223.187 738.376 229.307 720.772 229.307C703.84 229.307 689.338 222.936 677.267 210.194C665.364 197.285 659.412 181.526 659.412 162.917C659.412 144.308 665.364 128.633 677.267 115.891C689.338 102.982 703.84 96.5274 720.772 96.5274C738.376 96.5274 751.955 102.647 761.511 114.885V100.048ZM701.66 188.568C708.366 195.106 716.749 198.375 726.808 198.375C736.867 198.375 745.166 195.106 751.704 188.568C758.242 181.862 761.511 173.311 761.511 162.917C761.511 152.523 758.242 144.056 751.704 137.518C745.166 130.812 736.867 127.459 726.808 127.459C716.749 127.459 708.366 130.812 701.66 137.518C695.122 144.056 691.853 152.523 691.853 162.917C691.853 173.311 695.122 181.862 701.66 188.568Z" fill="white"/>
<path d="M604.07 225.786V100.048H636.51V225.786H604.07Z" fill="white"/>
<path d="M528.841 96.5274C542.589 96.5274 553.905 101.138 562.791 110.359C571.844 119.579 576.37 132.321 576.37 148.583V225.786H543.93V152.607C543.93 144.224 541.667 137.853 537.14 133.494C532.613 128.968 526.578 126.705 519.034 126.705C510.651 126.705 503.945 129.303 498.916 134.5C493.886 139.697 491.371 147.493 491.371 157.888V225.786H458.931V100.048H491.371V114.131C499.251 102.395 511.741 96.5274 528.841 96.5274Z" fill="white"/>
<path d="M407.579 100.048H443.288L395.508 225.786H358.541L310.761 100.048H346.47L376.899 188.065L407.579 100.048Z" fill="white"/>
<path d="M211.045 176.245C215.403 192.004 227.223 199.884 246.503 199.884C258.909 199.884 268.297 195.693 274.668 187.31L300.821 202.399C288.415 220.337 270.141 229.307 246 229.307C225.211 229.307 208.53 223.02 195.956 210.446C183.382 197.872 177.095 182.029 177.095 162.917C177.095 143.973 183.298 128.213 195.705 115.64C208.111 102.898 224.037 96.5274 243.485 96.5274C261.927 96.5274 277.099 102.898 289.002 115.64C301.073 128.381 307.108 144.14 307.108 162.917C307.108 167.108 306.689 171.551 305.851 176.245H211.045ZM210.542 151.098H274.668C272.824 142.547 268.968 136.177 263.1 131.986C257.4 127.794 250.862 125.699 243.485 125.699C234.767 125.699 227.558 127.962 221.858 132.488C216.158 136.847 212.386 143.05 210.542 151.098Z" fill="white"/>
<path d="M619.217 84.9594C613.853 84.9594 609.158 83.0314 605.135 79.1754C601.279 75.1518 599.351 70.4576 599.351 65.0928C599.351 59.728 601.279 55.0338 605.135 51.0101C609.158 46.9865 613.853 44.9747 619.217 44.9747C624.75 44.9747 629.444 46.9865 633.3 51.0101C637.324 55.0338 639.335 59.728 639.335 65.0928C639.335 70.4576 637.324 75.1518 633.3 79.1754C629.444 83.0314 624.75 84.9594 619.217 84.9594Z" fill="white" fill-opacity="0.45"/>
</svg>
