<svg width="152" height="58" viewBox="0 0 152 58" fill="none" xmlns="http://www.w3.org/2000/svg">
<path d="M87.2948 3.14398H88.3628L85.0808 12.144H84.0128L85.0988 9.14398L82.9448 3.14398H84.0488L85.6028 7.75798L87.2948 3.14398Z" fill="white"/>
<path d="M81.4712 7.55995L82.3712 8.04595C82.0992 8.42595 81.7532 8.72995 81.3332 8.95795C80.9172 9.18595 80.4652 9.29995 79.9772 9.29995C79.4252 9.29995 78.9212 9.15795 78.4652 8.87395C78.0132 8.58995 77.6512 8.20995 77.3792 7.73395C77.1112 7.25395 76.9772 6.72395 76.9772 6.14395C76.9772 5.70395 77.0552 5.29395 77.2112 4.91395C77.3672 4.52995 77.5812 4.19395 77.8532 3.90595C78.1292 3.61395 78.4492 3.38595 78.8132 3.22195C79.1772 3.05795 79.5652 2.97595 79.9772 2.97595C80.4652 2.97595 80.9172 3.08995 81.3332 3.31795C81.7532 3.54595 82.0992 3.85195 82.3712 4.23595L81.4712 4.72195C81.2792 4.48595 81.0512 4.30395 80.7872 4.17595C80.5232 4.04795 80.2532 3.98395 79.9772 3.98395C79.6052 3.98395 79.2672 4.08395 78.9632 4.28395C78.6632 4.47995 78.4252 4.74195 78.2492 5.06995C78.0732 5.39795 77.9852 5.75595 77.9852 6.14395C77.9852 6.53195 78.0732 6.88995 78.2492 7.21795C78.4292 7.54195 78.6692 7.80195 78.9692 7.99795C79.2732 8.19395 79.6092 8.29195 79.9772 8.29195C80.2732 8.29195 80.5512 8.22395 80.8112 8.08795C81.0712 7.95195 81.2912 7.77595 81.4712 7.55995Z" fill="white"/>
<path d="M76.2545 5.41195V9.14395H75.2465V5.63395C75.2465 5.32995 75.1725 5.05395 75.0245 4.80595C74.8765 4.55795 74.6785 4.36195 74.4305 4.21795C74.1825 4.06995 73.9065 3.99595 73.6025 3.99595C73.3025 3.99595 73.0265 4.06995 72.7745 4.21795C72.5265 4.36195 72.3285 4.55795 72.1805 4.80595C72.0325 5.05395 71.9585 5.32995 71.9585 5.63395V9.14395H70.9505V3.14395H71.9585V3.89395C72.1705 3.61395 72.4385 3.39195 72.7625 3.22795C73.0865 3.05995 73.4385 2.97595 73.8185 2.97595C74.2665 2.97595 74.6745 3.08595 75.0425 3.30595C75.4145 3.52195 75.7085 3.81395 75.9245 4.18195C76.1445 4.54995 76.2545 4.95995 76.2545 5.41195Z" fill="white"/>
<path d="M66.9694 9.29995C66.4174 9.29995 65.9134 9.15795 65.4574 8.87395C65.0054 8.58995 64.6434 8.20995 64.3714 7.73395C64.1034 7.25395 63.9694 6.72395 63.9694 6.14395C63.9694 5.70395 64.0474 5.29395 64.2034 4.91395C64.3594 4.52995 64.5734 4.19395 64.8454 3.90595C65.1214 3.61395 65.4414 3.38595 65.8054 3.22195C66.1694 3.05795 66.5574 2.97595 66.9694 2.97595C67.4214 2.97595 67.8354 3.06795 68.2114 3.25195C68.5914 3.43195 68.9154 3.68395 69.1834 4.00795C69.4554 4.33195 69.6574 4.70795 69.7894 5.13595C69.9254 5.56395 69.9754 6.02195 69.9394 6.50995H65.0434C65.0914 6.84995 65.2034 7.15395 65.3794 7.42195C65.5554 7.68595 65.7794 7.89595 66.0514 8.05195C66.3274 8.20795 66.6334 8.28795 66.9694 8.29195C67.3294 8.29195 67.6554 8.19995 67.9474 8.01595C68.2394 7.82795 68.4754 7.57195 68.6554 7.24795L69.6814 7.48795C69.4414 8.01995 69.0794 8.45595 68.5954 8.79595C68.1114 9.13195 67.5694 9.29995 66.9694 9.29995ZM65.0134 5.71795H68.9254C68.8934 5.38195 68.7854 5.07595 68.6014 4.79995C68.4174 4.51995 68.1834 4.29595 67.8994 4.12795C67.6154 3.95995 67.3054 3.87595 66.9694 3.87595C66.6334 3.87595 66.3254 3.95795 66.0454 4.12195C65.7654 4.28595 65.5334 4.50795 65.3494 4.78795C65.1694 5.06395 65.0574 5.37395 65.0134 5.71795Z" fill="white"/>
<path d="M61.9607 3.144H62.9687V9.336C62.9687 9.732 62.8827 10.1 62.7107 10.44C62.5427 10.784 62.3147 11.082 62.0267 11.334C61.7387 11.59 61.4107 11.788 61.0427 11.928C60.6747 12.072 60.2907 12.144 59.8907 12.144C59.4747 12.144 59.0727 12.05 58.6847 11.862C58.2967 11.678 57.9567 11.43 57.6647 11.118C57.3767 10.81 57.1687 10.464 57.0407 10.08L57.9647 9.66C58.0407 9.936 58.1767 10.184 58.3727 10.404C58.5727 10.628 58.8047 10.804 59.0687 10.932C59.3367 11.064 59.6107 11.13 59.8907 11.13C60.1547 11.13 60.4087 11.084 60.6527 10.992C60.9007 10.9 61.1227 10.772 61.3187 10.608C61.5187 10.448 61.6747 10.258 61.7867 10.038C61.9027 9.822 61.9607 9.588 61.9607 9.336V8.142C61.7567 8.486 61.4867 8.766 61.1507 8.982C60.8187 9.194 60.4307 9.3 59.9867 9.3C59.5627 9.3 59.1647 9.218 58.7927 9.054C58.4207 8.89 58.0947 8.664 57.8147 8.376C57.5347 8.084 57.3147 7.748 57.1547 7.368C56.9947 6.988 56.9147 6.58 56.9147 6.144C56.9147 5.708 56.9947 5.29999 57.1547 4.91999C57.3147 4.536 57.5347 4.2 57.8147 3.91199C58.0947 3.61999 58.4207 3.39199 58.7927 3.22799C59.1647 3.06399 59.5627 2.98199 59.9867 2.98199C60.4307 2.98199 60.8187 3.08799 61.1507 3.29999C61.4867 3.51199 61.7567 3.792 61.9607 4.14V3.144ZM59.9927 8.32199C60.3807 8.32199 60.7167 8.222 61.0007 8.022C61.2887 7.822 61.5107 7.556 61.6667 7.224C61.8227 6.892 61.9007 6.532 61.9007 6.144C61.9007 5.744 61.8207 5.38 61.6607 5.052C61.5047 4.72 61.2827 4.456 60.9947 4.26C60.7107 4.06 60.3767 3.96 59.9927 3.96C59.6167 3.96 59.2727 4.058 58.9607 4.25399C58.6487 4.45 58.4007 4.714 58.2167 5.046C58.0367 5.374 57.9467 5.74 57.9467 6.144C57.9467 6.548 58.0387 6.916 58.2227 7.248C58.4107 7.576 58.6587 7.838 58.9667 8.034C59.2787 8.226 59.6207 8.32199 59.9927 8.32199Z" fill="white"/>
<path d="M52.4012 0.743958H53.6192L56.6732 9.14396H55.6052L54.9812 7.42796H51.0392L50.4212 9.14396H49.3472L52.4012 0.743958ZM51.4112 6.41996H54.6092L53.0072 2.03396L51.4112 6.41996Z" fill="white"/>
<path d="M45.6288 4.15201H44.2668L44.2608 9.14401H43.2528L43.2588 4.15201H42.2268V3.14401H43.2588L43.2528 1.26001H44.2608L44.2668 3.14401H45.6288V4.15201Z" fill="white"/>
<path d="M39.5937 1.662V3.144H41.3517V4.152H39.5937V9.144H38.5857V4.152H37.8117V3.144H38.5857V1.662C38.5857 1.354 38.6597 1.076 38.8077 0.828C38.9597 0.576 39.1617 0.376 39.4137 0.228C39.6697 0.076 39.9497 0 40.2537 0C40.4777 0 40.6957 0.046 40.9077 0.138C41.1197 0.226 41.3077 0.358 41.4717 0.534L40.7517 1.248C40.6957 1.172 40.6217 1.114 40.5297 1.074C40.4417 1.03 40.3497 1.008 40.2537 1.008C40.0737 1.008 39.9177 1.072 39.7857 1.2C39.6577 1.328 39.5937 1.482 39.5937 1.662Z" fill="white"/>
<path d="M34.1569 9.29995C33.6049 9.29995 33.1009 9.15795 32.6449 8.87395C32.1929 8.58995 31.8309 8.20995 31.5589 7.73395C31.2909 7.25395 31.1569 6.72395 31.1569 6.14395C31.1569 5.70395 31.2349 5.29395 31.3909 4.91395C31.5469 4.52995 31.7609 4.19395 32.0329 3.90595C32.3089 3.61395 32.6289 3.38595 32.9929 3.22195C33.3569 3.05795 33.7449 2.97595 34.1569 2.97595C34.7089 2.97595 35.2109 3.11795 35.6629 3.40195C36.1189 3.68595 36.4809 4.06795 36.7489 4.54795C37.0209 5.02795 37.1569 5.55995 37.1569 6.14395C37.1569 6.57995 37.0789 6.98795 36.9229 7.36795C36.7669 7.74795 36.5509 8.08395 36.2749 8.37595C36.0029 8.66395 35.6849 8.88995 35.3209 9.05395C34.9609 9.21795 34.5729 9.29995 34.1569 9.29995ZM34.1569 8.29195C34.5329 8.29195 34.8709 8.19395 35.1709 7.99795C35.4749 7.79795 35.7129 7.53595 35.8849 7.21195C36.0609 6.88395 36.1489 6.52795 36.1489 6.14395C36.1489 5.75195 36.0589 5.39195 35.8789 5.06395C35.7029 4.73595 35.4649 4.47395 35.1649 4.27795C34.8649 4.08195 34.5289 3.98395 34.1569 3.98395C33.7809 3.98395 33.4429 4.08395 33.1429 4.28395C32.8429 4.47995 32.6049 4.74195 32.4289 5.06995C32.2529 5.39795 32.1649 5.75595 32.1649 6.14395C32.1649 6.54395 32.2549 6.90795 32.4349 7.23595C32.6149 7.55995 32.8569 7.81795 33.1609 8.00995C33.4649 8.19795 33.7969 8.29195 34.1569 8.29195Z" fill="white"/>
<path d="M27.2092 9.3C26.7572 9.3 26.3212 9.23 25.9012 9.09C25.4812 8.946 25.1132 8.742 24.7972 8.478C24.4852 8.214 24.2632 7.9 24.1312 7.536L25.0732 7.182C25.1532 7.406 25.3012 7.602 25.5172 7.77C25.7372 7.934 25.9952 8.062 26.2912 8.154C26.5872 8.246 26.8932 8.292 27.2092 8.292C27.5692 8.292 27.9032 8.234 28.2112 8.118C28.5232 7.998 28.7752 7.832 28.9672 7.62C29.1592 7.408 29.2552 7.16 29.2552 6.876C29.2552 6.584 29.1552 6.346 28.9552 6.162C28.7552 5.974 28.4992 5.826 28.1872 5.718C27.8752 5.606 27.5492 5.52 27.2092 5.46C26.6292 5.364 26.1092 5.228 25.6492 5.052C25.1932 4.872 24.8312 4.622 24.5632 4.302C24.2992 3.982 24.1672 3.56 24.1672 3.036C24.1672 2.548 24.3072 2.122 24.5872 1.758C24.8712 1.394 25.2452 1.112 25.7092 0.911999C26.1732 0.711999 26.6732 0.612 27.2092 0.612C27.6532 0.612 28.0832 0.681999 28.4992 0.821999C28.9192 0.957999 29.2892 1.158 29.6092 1.422C29.9292 1.686 30.1592 2.008 30.2992 2.388L29.3452 2.736C29.2652 2.508 29.1152 2.312 28.8952 2.148C28.6792 1.98 28.4232 1.852 28.1272 1.764C27.8352 1.672 27.5292 1.626 27.2092 1.626C26.8532 1.622 26.5212 1.68 26.2132 1.8C25.9052 1.92 25.6552 2.086 25.4632 2.298C25.2712 2.51 25.1752 2.756 25.1752 3.036C25.1752 3.372 25.2632 3.63 25.4392 3.81C25.6192 3.986 25.8632 4.118 26.1712 4.206C26.4792 4.294 26.8252 4.372 27.2092 4.44C27.7532 4.532 28.2572 4.678 28.7212 4.878C29.1852 5.074 29.5572 5.336 29.8372 5.664C30.1212 5.992 30.2632 6.396 30.2632 6.876C30.2632 7.364 30.1212 7.79 29.8372 8.154C29.5572 8.518 29.1852 8.8 28.7212 9C28.2572 9.2 27.7532 9.3 27.2092 9.3Z" fill="white"/>
<path d="M17.3053 9.29995C16.7533 9.29995 16.2493 9.15795 15.7933 8.87395C15.3413 8.58995 14.9793 8.20995 14.7073 7.73395C14.4393 7.25395 14.3053 6.72395 14.3053 6.14395C14.3053 5.70395 14.3833 5.29395 14.5393 4.91395C14.6953 4.52995 14.9093 4.19395 15.1813 3.90595C15.4573 3.61395 15.7773 3.38595 16.1413 3.22195C16.5053 3.05795 16.8933 2.97595 17.3053 2.97595C17.7573 2.97595 18.1713 3.06795 18.5473 3.25195C18.9273 3.43195 19.2513 3.68395 19.5193 4.00795C19.7913 4.33195 19.9933 4.70795 20.1253 5.13595C20.2613 5.56395 20.3113 6.02195 20.2753 6.50995H15.3793C15.4273 6.84995 15.5393 7.15395 15.7153 7.42195C15.8913 7.68595 16.1153 7.89595 16.3873 8.05195C16.6633 8.20795 16.9693 8.28795 17.3053 8.29195C17.6653 8.29195 17.9913 8.19995 18.2833 8.01595C18.5753 7.82795 18.8113 7.57195 18.9913 7.24795L20.0173 7.48795C19.7773 8.01995 19.4153 8.45595 18.9313 8.79595C18.4473 9.13195 17.9053 9.29995 17.3053 9.29995ZM15.3493 5.71795H19.2613C19.2293 5.38195 19.1213 5.07595 18.9373 4.79995C18.7533 4.51995 18.5193 4.29595 18.2353 4.12795C17.9513 3.95995 17.6413 3.87595 17.3053 3.87595C16.9693 3.87595 16.6613 3.95795 16.3813 4.12195C16.1013 4.28595 15.8693 4.50795 15.6853 4.78795C15.5053 5.06395 15.3933 5.37395 15.3493 5.71795Z" fill="white"/>
<path d="M13.5826 5.41198V9.14398H12.5746V5.63398C12.5746 5.32998 12.5006 5.05398 12.3526 4.80598C12.2046 4.55798 12.0066 4.36198 11.7586 4.21798C11.5106 4.06998 11.2346 3.99598 10.9306 3.99598C10.6306 3.99598 10.3546 4.06998 10.1026 4.21798C9.8546 4.36198 9.65659 4.55798 9.50859 4.80598C9.36059 5.05398 9.28659 5.32998 9.28659 5.63398V9.14398H8.27859V0.143982H9.28659V3.89398C9.49859 3.61398 9.7666 3.39198 10.0906 3.22798C10.4146 3.05998 10.7666 2.97598 11.1466 2.97598C11.5946 2.97598 12.0026 3.08598 12.3706 3.30598C12.7426 3.52198 13.0366 3.81398 13.2526 4.18198C13.4726 4.54998 13.5826 4.95998 13.5826 5.41198Z" fill="white"/>
<path d="M7.074 0.743958V1.75196H4.278V9.14396H3.27V1.75196H0.480003V0.743958H7.074Z" fill="white"/>
<path d="M0.2304 15.755C0.0256 15.883 0 16.1774 0 18.9294C0 20.5934 0.0512 22.0398 0.1152 22.1294C0.192 22.2702 1.6128 22.2958 7.5648 22.283C14.656 22.2574 14.9504 22.2702 15.9232 22.5262C17.792 23.0254 19.4944 23.9982 20.7616 25.3038C21.7856 26.3534 22.1056 26.8014 22.656 27.979C23.424 29.579 23.6032 30.4238 23.6032 32.331C23.616 34.2254 23.4624 34.8654 22.6304 36.6574L22.1056 37.771L23.872 39.6014C24.8448 40.5998 25.8688 41.6494 26.1248 41.9182C26.7264 42.5454 26.752 42.5198 27.8016 40.907C30.0544 37.4254 30.8608 32.4206 29.8112 28.3118C28.2112 21.9886 23.4368 17.483 16.7808 15.9854C15.616 15.7294 15.1808 15.7166 8 15.6654C2.8416 15.6398 0.3712 15.6654 0.2304 15.755Z" fill="white"/>
<path d="M0.0639845 23.819C0.0127845 23.8958 0.0127845 25.0094 0.0511845 26.2894C0.0895845 27.5694 0.127985 32.9198 0.127985 38.1806C0.127985 45.1822 0.166384 47.755 0.268784 47.755C0.345584 47.755 1.81758 46.3342 3.53278 44.6062L6.65598 41.4574L6.63038 32.6126L6.59198 23.755L3.36638 23.7166C1.24158 23.7038 0.115185 23.7294 0.0639845 23.819Z" fill="white"/>
<path d="M8.704 34.0462C8.1408 34.0974 7.872 34.1742 7.872 34.2894C7.872 34.379 8.9728 35.5694 10.304 36.9134C11.648 38.2702 14.912 41.5726 17.5872 44.2734L22.4256 49.163H26.496C31.2704 49.163 31.2576 49.163 30.3232 48.1646C29.376 47.1534 25.2416 42.9294 20.6976 38.3086L16.3712 33.931L12.9536 33.9566C11.072 33.9694 9.1648 34.0078 8.704 34.0462Z" fill="#FF7A08"/>
<path d="M9.792 42.5966L7.4752 42.635L4.352 45.771C2.112 48.0238 1.2672 48.9454 1.3568 49.035C1.4592 49.1374 3.6096 49.163 8.5888 49.1246C15.3088 49.0862 15.7312 49.0734 16.704 48.8174C17.856 48.5102 18.944 48.075 18.944 47.9086C18.944 47.8574 17.792 46.6158 16.3712 45.1566L13.7984 42.507L12.9536 42.5326C12.48 42.5582 11.0592 42.5838 9.792 42.5966Z" fill="white"/>
<path d="M145.352 23.656H151.544V57.256H145.352V44.824C143.528 47.16 140.936 48.328 137.576 48.328C134.344 48.328 131.576 47.112 129.272 44.68C127 42.216 125.864 39.208 125.864 35.656C125.864 32.104 127 29.112 129.272 26.68C131.576 24.216 134.344 22.984 137.576 22.984C140.936 22.984 143.528 24.152 145.352 26.488V23.656ZM133.928 40.552C135.208 41.8 136.808 42.424 138.728 42.424C140.648 42.424 142.232 41.8 143.48 40.552C144.728 39.272 145.352 37.64 145.352 35.656C145.352 33.672 144.728 32.056 143.48 30.808C142.232 29.528 140.648 28.888 138.728 28.888C136.808 28.888 135.208 29.528 133.928 30.808C132.68 32.056 132.056 33.672 132.056 35.656C132.056 37.64 132.68 39.272 133.928 40.552Z" fill="white"/>
<path d="M115.301 47.656V23.656H121.493V47.656H115.301Z" fill="white"/>
<path d="M100.942 22.984C103.566 22.984 105.726 23.864 107.422 25.624C109.15 27.384 110.014 29.816 110.014 32.92V47.656H103.822V33.688C103.822 32.088 103.39 30.872 102.526 30.04C101.662 29.176 100.51 28.744 99.0696 28.744C97.4696 28.744 96.1896 29.24 95.2296 30.232C94.2696 31.224 93.7896 32.712 93.7896 34.696V47.656H87.5976V23.656H93.7896V26.344C95.2936 24.104 97.6776 22.984 100.942 22.984Z" fill="white"/>
<path d="M77.7959 23.656H84.6119L75.4919 47.656H68.4359L59.3159 23.656H66.1319L71.9399 40.456L77.7959 23.656Z" fill="white"/>
<path d="M40.2827 38.2C41.1147 41.208 43.3708 42.712 47.0508 42.712C49.4188 42.712 51.2107 41.912 52.4268 40.312L57.4188 43.192C55.0508 46.616 51.5628 48.328 46.9548 48.328C42.9868 48.328 39.8028 47.128 37.4028 44.728C35.0028 42.328 33.8027 39.304 33.8027 35.656C33.8027 32.04 34.9868 29.032 37.3548 26.632C39.7228 24.2 42.7628 22.984 46.4748 22.984C49.9948 22.984 52.8907 24.2 55.1628 26.632C57.4668 29.064 58.6188 32.072 58.6188 35.656C58.6188 36.456 58.5387 37.304 58.3787 38.2H40.2827ZM40.1868 33.4H52.4268C52.0747 31.768 51.3387 30.552 50.2188 29.752C49.1307 28.952 47.8828 28.552 46.4748 28.552C44.8108 28.552 43.4348 28.984 42.3468 29.848C41.2588 30.68 40.5388 31.864 40.1868 33.4Z" fill="white"/>
<path d="M118.192 20.776C117.168 20.776 116.272 20.408 115.504 19.672C114.768 18.904 114.4 18.008 114.4 16.984C114.4 15.96 114.768 15.064 115.504 14.296C116.272 13.528 117.168 13.144 118.192 13.144C119.248 13.144 120.144 13.528 120.88 14.296C121.648 15.064 122.032 15.96 122.032 16.984C122.032 18.008 121.648 18.904 120.88 19.672C120.144 20.408 119.248 20.776 118.192 20.776Z" fill="#FF7A08"/>
</svg>
