<svg width="107" height="31" viewBox="0 0 107 31" fill="none" xmlns="http://www.w3.org/2000/svg">
<path d="M0.16128 1.82772C0.01792 1.91732 0 2.1234 0 4.0498C0 5.2146 0.03584 6.22708 0.08064 6.2898C0.1344 6.38836 1.12896 6.40628 5.29536 6.39732C10.2592 6.3794 10.4653 6.38836 11.1462 6.56756C12.4544 6.917 13.6461 7.59796 14.5331 8.51188C15.2499 9.2466 15.4739 9.5602 15.8592 10.3845C16.3968 11.5045 16.5222 12.0959 16.5222 13.4309C16.5312 14.757 16.4237 15.205 15.8413 16.4594L15.4739 17.2389L16.7104 18.5202C17.3914 19.2191 18.1082 19.9538 18.2874 20.142C18.7085 20.581 18.7264 20.5631 19.4611 19.4341C21.0381 16.997 21.6026 13.4936 20.8678 10.6175C19.7478 6.19124 16.4058 3.03732 11.7466 1.989C10.9312 1.8098 10.6266 1.80084 5.6 1.765C1.98912 1.74708 0.25984 1.765 0.16128 1.82772Z" fill="white"/>
<path d="M0.0447892 7.47252C0.00894916 7.52628 0.00894916 8.3058 0.0358292 9.2018C0.0627092 10.0978 0.0895892 13.8431 0.0895892 17.5256C0.0895892 22.4268 0.116469 24.2277 0.188149 24.2277C0.241909 24.2277 1.27231 23.2332 2.47295 22.0236L4.65919 19.8194L4.64127 13.628L4.61439 7.42772L2.35647 7.40084C0.869109 7.39188 0.0806292 7.4098 0.0447892 7.47252Z" fill="white"/>
<path d="M6.0928 14.6316C5.69856 14.6674 5.5104 14.7212 5.5104 14.8018C5.5104 14.8645 6.28096 15.6978 7.2128 16.6386C8.1536 17.5884 10.4384 19.9 12.311 21.7906L15.6979 25.2133H18.5472C21.8893 25.2133 21.8803 25.2133 21.2262 24.5144C20.5632 23.8066 17.6691 20.8498 14.4883 17.6152L11.4598 14.5509L9.06752 14.5688C7.7504 14.5778 6.41536 14.6047 6.0928 14.6316Z" fill="white" fill-opacity="0.37"/>
<path d="M6.8544 20.6168L5.23264 20.6437L3.0464 22.8389C1.4784 24.4159 0.88704 25.061 0.94976 25.1237C1.02144 25.1954 2.52672 25.2133 6.01216 25.1864C10.7162 25.1596 11.0118 25.1506 11.6928 24.9714C12.4992 24.7564 13.2608 24.4517 13.2608 24.3352C13.2608 24.2994 12.4544 23.4303 11.4598 22.4088L9.65888 20.5541L9.06752 20.572C8.736 20.59 7.74144 20.6079 6.8544 20.6168Z" fill="white"/>
<path d="M101.746 7.35842H106.081V30.8784H101.746V22.176C100.47 23.8112 98.6553 24.6288 96.3033 24.6288C94.0409 24.6288 92.1033 23.7776 90.4905 22.0752C88.9001 20.3504 88.1049 18.2448 88.1049 15.7584C88.1049 13.272 88.9001 11.1776 90.4905 9.47522C92.1033 7.75042 94.0409 6.88802 96.3033 6.88802C98.6553 6.88802 100.47 7.70562 101.746 9.34082V7.35842ZM93.7497 19.1856C94.6457 20.0592 95.7657 20.496 97.1097 20.496C98.4537 20.496 99.5625 20.0592 100.436 19.1856C101.31 18.2896 101.746 17.1472 101.746 15.7584C101.746 14.3696 101.31 13.2384 100.436 12.3648C99.5625 11.4688 98.4537 11.0208 97.1097 11.0208C95.7657 11.0208 94.6457 11.4688 93.7497 12.3648C92.8761 13.2384 92.4393 14.3696 92.4393 15.7584C92.4393 17.1472 92.8761 18.2896 93.7497 19.1856Z" fill="white"/>
<path d="M80.7105 24.1584V7.3584H85.0449V24.1584H80.7105Z" fill="white"/>
<path d="M70.6591 6.88802C72.4959 6.88802 74.0079 7.50402 75.1951 8.73602C76.4047 9.96802 77.0095 11.6704 77.0095 13.8432V24.1584H72.6751V14.3808C72.6751 13.2608 72.3727 12.4096 71.7679 11.8272C71.1631 11.2224 70.3567 10.92 69.3487 10.92C68.2287 10.92 67.3327 11.2672 66.6607 11.9616C65.9887 12.656 65.6527 13.6976 65.6527 15.0864V24.1584H61.3183V7.35842H65.6527V9.24002C66.7055 7.67202 68.3743 6.88802 70.6591 6.88802Z" fill="white"/>
<path d="M54.4571 7.35842H59.2283L52.8443 24.1584H47.9051L41.5211 7.35842H46.2923L50.3579 19.1184L54.4571 7.35842Z" fill="white"/>
<path d="M28.1979 17.5392C28.7803 19.6448 30.3595 20.6976 32.9355 20.6976C34.5931 20.6976 35.8475 20.1376 36.6987 19.0176L40.1931 21.0336C38.5355 23.4304 36.0939 24.6288 32.8683 24.6288C30.0907 24.6288 27.8619 23.7888 26.1819 22.1088C24.5019 20.4288 23.6619 18.312 23.6619 15.7584C23.6619 13.2272 24.4907 11.1216 26.1483 9.44162C27.8059 7.73922 29.9339 6.88802 32.5323 6.88802C34.9963 6.88802 37.0235 7.73922 38.6139 9.44162C40.2267 11.144 41.0331 13.2496 41.0331 15.7584C41.0331 16.3184 40.9771 16.912 40.8651 17.5392H28.1979ZM28.1307 14.1792H36.6987C36.4523 13.0368 35.9371 12.1856 35.1531 11.6256C34.3915 11.0656 33.5179 10.7856 32.5323 10.7856C31.3675 10.7856 30.4043 11.088 29.6427 11.6928C28.8811 12.2752 28.3771 13.104 28.1307 14.1792Z" fill="white"/>
<path d="M82.7344 5.3424C82.0176 5.3424 81.3904 5.0848 80.8528 4.5696C80.3376 4.032 80.08 3.4048 80.08 2.688C80.08 1.9712 80.3376 1.344 80.8528 0.8064C81.3904 0.2688 82.0176 0 82.7344 0C83.4736 0 84.1008 0.2688 84.616 0.8064C85.1536 1.344 85.4224 1.9712 85.4224 2.688C85.4224 3.4048 85.1536 4.032 84.616 4.5696C84.1008 5.0848 83.4736 5.3424 82.7344 5.3424Z" fill="white" fill-opacity="0.37"/>
</svg>
