<svg width="314" height="340" viewBox="0 0 314 340" fill="none" xmlns="http://www.w3.org/2000/svg">
<path d="M2.33076 0.987755C0.258973 2.26474 0 5.20182 0 32.6571C0 49.2579 0.517946 63.6879 1.16538 64.5818C1.9423 65.9865 16.3153 66.2419 76.5265 66.1142C148.262 65.8588 151.24 65.9865 161.081 68.5404C179.986 73.5207 197.208 83.2258 210.027 96.2511C220.386 106.722 223.623 111.192 229.191 122.94C236.96 138.902 238.773 147.33 238.773 166.358C238.903 185.257 237.349 191.642 228.932 209.52L223.623 220.63L241.492 238.891C251.333 248.851 261.692 259.322 264.282 262.004C270.368 268.261 270.627 268.006 281.245 251.916C304.034 217.182 312.192 167.252 301.574 126.26C285.388 63.1771 237.09 18.2271 169.757 3.28634C157.973 0.732359 153.571 0.604663 80.929 0.0938674C28.746 -0.16153 3.75511 0.0938636 2.33076 0.987755Z" fill="white"/>
<path d="M0.647352 81.438C0.129406 82.2042 0.129406 93.314 0.517866 106.084C0.906325 118.854 1.29479 172.232 1.29479 224.716C1.29479 294.567 1.68324 320.235 2.71913 320.235C3.49605 320.235 18.3869 306.06 35.7381 288.821L67.3328 257.407L67.0739 169.167L66.6854 80.7996L34.0548 80.4165C12.5601 80.2888 1.1653 80.5441 0.647352 81.438Z" fill="white"/>
<path d="M88.0509 183.469C82.3535 183.98 79.6343 184.746 79.6343 185.896C79.6343 186.789 90.7701 198.665 104.237 212.074C117.833 225.61 150.852 258.556 177.914 285.501L226.86 334.282H268.037C316.336 334.282 316.206 334.282 306.754 324.321C297.172 314.233 255.347 272.092 209.38 225.993L165.613 182.32L131.04 182.575C112.006 182.703 92.7124 183.086 88.0509 183.469Z" fill="#FF7A08"/>
<path d="M99.0571 268.772L75.6201 269.155L44.0254 300.441C21.3653 322.916 12.8192 332.111 13.7256 333.005C14.7615 334.026 36.5152 334.282 86.8854 333.898C154.866 333.515 159.139 333.388 168.98 330.834C180.634 327.769 191.64 323.427 191.64 321.767C191.64 321.256 179.986 308.87 165.613 294.312L139.586 267.878L131.04 268.134C126.249 268.389 111.876 268.644 99.0571 268.772Z" fill="white"/>
</svg>
